HIERARCHY
ROOT hip
{
	OFFSET 0.000000 0.000000 0.000000 
	CHANNELS 6 Xposition Yposition Zposition Xrotation Zrotation Yrotation
	JOINT abdomen
	{
		OFFSET 0.000000 3.402643 0.000000 
		CHANNELS 3 Xrotation Zrotation Yrotation
		JOINT chest
		{
			OFFSET 0.000000 8.438565 -0.680529 
			CHANNELS 3 Xrotation Zrotation Yrotation
			JOINT neck
			{
				OFFSET 0.000000 10.207942 -0.272212 
				CHANNELS 3 Xrotation Zrotation Yrotation
				JOINT head
				{
					OFFSET 0.000000 3.130431 0.000000 
					CHANNELS 3 Xrotation Zrotation Yrotation
					End Site
					{
						OFFSET 0.000000 3.130435 0.000000 
					}
				}
			}
			JOINT lCollar
			{
				OFFSET 3.470700 6.669187 -0.816635 
				CHANNELS 3 Yrotation Zrotation Xrotation
				JOINT lShldr
				{
					OFFSET 3.198488 0.000000 0.000000 
					CHANNELS 3 Zrotation Yrotation Xrotation
					JOINT lForeArm
					{
						OFFSET 10.139888 0.000000 0.000000 
						CHANNELS 3 Yrotation Zrotation Xrotation
						JOINT lHand
						{
							OFFSET 8.370511 0.000000 0.000000 
							CHANNELS 3 Zrotation Yrotation Xrotation
							End Site
							{
								OFFSET 4.083176 0.000000 0.000000 
							}
						}
					}
				}
			}
			JOINT rCollar
			{
				OFFSET -3.470700 6.669187 -0.816635 
				CHANNELS 3 Yrotation Zrotation Xrotation
				JOINT rShldr
				{
					OFFSET -3.198488 0.000000 0.000000 
					CHANNELS 3 Zrotation Yrotation Xrotation
					JOINT rForeArm
					{
						OFFSET -10.139888 0.000000 0.000000 
						CHANNELS 3 Yrotation Zrotation Xrotation
						JOINT rHand
						{
							OFFSET -8.370511 0.000000 0.000000 
							CHANNELS 3 Zrotation Yrotation Xrotation
							End Site
							{
								OFFSET -4.083176 0.000000 0.000000 
							}
						}
					}
				}
			}
		}
	}
	JOINT lThigh
	{
		OFFSET 5.308129 -1.633274 1.361059 
		CHANNELS 3 Xrotation Zrotation Yrotation
		JOINT lShin
		{
			OFFSET -2.041588 -20.007561 0.000000 
			CHANNELS 3 Xrotation Zrotation Yrotation
			JOINT lFoot
			{
				OFFSET 0.000000 -19.190928 -1.224953 
				CHANNELS 3 Xrotation Yrotation Zrotation
				End Site
				{
					OFFSET 0.000000 -2.449906 4.627600 
				}
			}
		}
	}
	JOINT rThigh
	{
		OFFSET -5.308129 -1.633274 1.361059 
		CHANNELS 3 Xrotation Zrotation Yrotation
		JOINT rShin
		{
			OFFSET 2.041588 -20.007561 0.000000 
			CHANNELS 3 Xrotation Zrotation Yrotation
			JOINT rFoot
			{
				OFFSET 0.000000 -19.190928 -1.224953 
				CHANNELS 3 Xrotation Yrotation Zrotation
				End Site
				{
					OFFSET 0.000000 -2.449906 4.627600 
				}
			}
		}
	}
}
MOTION
Frames: 13
Frame Time: 0.033333
-0.786097 49.935055 -0.122257 1.175527 -0.878763 1.035184 0.000000 0.000000 0.000000 -5.748491 -0.507801 -0.390696 0.688304 2.410319 -2.208774 15.522636 -1.552664 -0.547203 -13.940617 -11.517874 -6.017916 -62.561104 20.158222 15.324084 -49.543945 -9.780496 -11.524109 -4.817182 14.713345 -4.140633 4.585583 -0.967720 -4.604500 -30.432827 30.409908 -69.344521 97.087967 1.651810 -1.081320 -21.022945 15.964402 -6.806779 0.418186 1.038475 3.062594 6.746315 -3.320420 18.788313 -8.915790 0.018783 0.116475 -1.277353 -3.109209 -4.465004 6.844801 3.690568 -14.294928 -6.217975 -0.124344 1.811190 
-0.794375 49.928410 -0.120216 1.205030 -0.859232 1.044951 0.000000 0.000000 0.000000 -5.738392 -0.556628 -0.390701 0.833101 2.498209 -2.169739 15.218616 -1.689399 -0.459361 -13.808026 -11.506380 -6.000385 -62.559296 20.136671 15.433532 -49.579056 -9.788911 -11.530527 -4.942338 14.392654 -4.141544 4.748398 -0.892655 -4.603318 -30.427126 30.338400 -69.142120 97.101974 1.575591 -0.576313 -21.608461 15.731225 -6.876343 0.292258 1.033136 3.069917 6.906700 -3.324373 18.874153 -8.964804 -0.000400 0.064399 -1.393258 -3.097260 -4.459368 7.030084 3.670925 -14.331287 -6.314775 -0.107053 1.808670 
-0.799580 49.927780 -0.116030 1.223336 -0.917813 1.054709 0.000000 0.000000 0.000000 -5.680797 -0.468742 -0.341865 0.744760 2.381285 -2.052256 15.374300 -1.552680 -0.478869 -13.785371 -11.600035 -5.945079 -62.495205 19.993858 15.485014 -49.647530 -9.804335 -11.567356 -5.042043 14.172162 -4.131458 4.523763 -1.387508 -4.527384 -29.944199 30.579020 -69.465424 97.325668 1.736936 -1.089602 -21.169012 15.954035 -6.829535 0.243521 1.094324 3.067145 7.030135 -3.301305 18.828270 -9.052650 0.028660 0.035078 -1.374541 -3.040334 -4.465408 6.940717 3.727774 -14.393408 -6.268535 -0.118258 1.760805 
-0.806329 49.927391 -0.113860 1.241333 -0.956854 1.103525 0.000000 0.000000 0.000000 -5.622044 -0.468741 -0.361396 0.751039 2.293561 -1.974202 15.546977 -1.113238 -0.508096 -13.732433 -11.665127 -5.899746 -62.396065 19.918617 15.549532 -49.749825 -9.817057 -11.793562 -5.526573 13.429908 -4.134095 4.492857 -1.292984 -4.478751 -30.005934 30.755232 -69.395462 97.263542 1.629763 -0.479110 -21.636801 15.583195 -6.850290 0.165697 1.123610 3.063960 7.135741 -3.251056 18.813644 -9.082032 0.007611 -0.007169 -1.326023 -3.021080 -4.462313 6.862139 3.778243 -14.367441 -6.279025 -0.107433 1.722996 
-0.810730 49.924606 -0.113728 1.318026 -0.995896 1.142745 0.000000 0.000000 0.000000 -5.641392 -0.449208 -0.400455 0.780118 2.322868 -1.954686 15.360851 -1.210902 -0.439561 -13.797416 -11.683743 -5.916975 -62.466526 20.042759 15.293490 -49.770649 -9.727917 -11.555864 -5.615101 13.434215 -4.145864 4.397125 -1.384977 -4.498974 -29.428293 31.242300 -69.121048 97.215630 1.645881 -1.001269 -21.839100 15.686737 -6.903266 -0.048681 1.168153 3.070121 7.297878 -3.228003 18.940039 -9.121059 0.002358 -0.063506 -1.412982 -2.970699 -4.414239 6.840649 3.744864 -14.467934 -6.248570 -0.104976 1.745263 
-0.813529 49.920635 -0.117678 1.297759 -1.015416 1.162273 0.000000 0.000000 0.000000 -5.572202 -0.517563 -0.439523 0.840873 2.459405 -2.022974 14.608608 -1.552708 -0.332174 -13.789630 -11.330680 -5.822501 -62.999500 19.876799 14.905897 -49.338684 -9.683891 -11.147254 -5.630855 13.844496 -4.165637 4.139626 -1.819288 -4.423480 -27.271664 32.388023 -67.647392 97.281319 1.511240 -0.498946 -22.995344 15.847289 -7.131513 -0.019143 1.174297 3.058921 7.368982 -3.221447 18.701550 -9.199199 0.004291 -0.051832 -1.443949 -2.955161 -4.405046 6.928641 3.715523 -14.482465 -6.288058 -0.122118 1.769859 
-0.830582 49.928204 -0.122146 1.258177 -1.015406 1.191565 0.000000 0.000000 0.000000 -5.529978 -0.664024 -0.615306 0.681934 2.361935 -1.935170 14.259352 -1.503905 -0.058830 -14.095345 -11.742954 -5.863534 -62.665928 19.905085 14.391429 -48.801899 -9.742415 -11.068695 -5.284773 15.448172 -4.232451 3.778426 -2.335820 -4.368213 -22.931767 34.817936 -63.261330 97.543037 0.836110 0.387729 -22.796515 14.877055 -6.915834 0.078119 1.187359 3.053751 7.243947 -3.202873 18.652641 -9.121065 0.005322 -0.062103 -1.327095 -2.936454 -4.428423 6.727132 3.748824 -14.612903 -6.160937 -0.101668 1.724957 
-0.876139 49.940792 -0.111589 1.115589 -1.181332 1.308718 0.000000 0.000000 0.000000 -5.591745 -0.829965 -0.947449 0.504317 1.893809 -1.582780 14.802823 -0.312494 0.341792 -14.501709 -12.097375 -5.978528 -62.288525 20.345165 14.127411 -48.538536 -9.797523 -10.907626 -4.993552 15.142454 -4.188038 3.241714 -2.660748 -4.430365 -12.977942 38.403561 -52.408798 98.249657 -0.465496 0.993062 -23.143576 13.707974 -6.750289 0.185031 1.399574 3.189001 7.329507 -3.171415 18.443329 -9.121004 0.021173 -0.129994 -0.799712 -2.690943 -4.381202 6.012624 3.775843 -14.741571 -5.870481 -0.080347 1.594418 
-0.944510 49.952057 -0.079507 1.213643 -1.308089 1.592051 0.000000 0.000000 0.000000 -5.982489 -1.142339 -1.172226 0.252266 1.590997 -1.817061 14.717155 0.058593 0.351572 -15.230849 -12.615584 -6.492576 -61.674587 20.980942 13.932103 -48.176216 -9.903789 -10.423196 -4.778269 14.598838 -4.122842 3.558078 -2.218392 -4.778337 3.013149 39.992279 -35.204903 97.752663 -1.852565 2.638167 -22.682011 12.022183 -6.358001 0.106966 1.591077 3.206036 7.335900 -3.090302 18.115059 -9.120843 0.037875 -0.219025 -0.536088 -2.503287 -4.347899 5.358096 3.872179 -14.990785 -5.623677 -0.094670 1.406090 
-1.013138 49.952213 -0.058974 1.917361 -0.712416 2.089925 0.000000 0.000000 0.000000 -6.857763 -1.991644 -1.338779 -0.298690 0.458723 -1.933610 14.681062 1.083979 0.175935 -16.319323 -14.252308 -7.703643 -59.971027 22.138079 14.029913 -48.342869 -9.911954 -8.979104 -5.244763 13.573555 -4.118111 4.763773 -1.259297 -5.557340 21.216316 36.824600 -15.166392 93.106842 -2.746809 2.425231 -24.898188 10.215690 -6.300849 -0.057824 1.027734 2.678876 6.188794 -3.144024 18.190086 -8.525352 0.018274 -0.088203 -1.756583 -3.122188 -4.652822 6.698599 3.944801 -15.123176 -6.423451 -0.108143 1.520618 
-1.116600 49.956169 -0.024135 1.694568 -0.917341 2.119338 0.000000 0.000000 0.000000 -6.862992 -2.108757 -1.387935 -0.791884 0.029284 -1.699219 15.241396 1.083962 0.371212 -16.107765 -14.533895 -7.731066 -59.696938 21.201590 13.940804 -46.783722 -10.097514 -8.505675 -5.291638 14.704904 -4.185790 6.464635 1.821334 -5.739982 33.326572 30.859379 -0.153375 79.514755 -0.737454 -3.988232 -25.534412 9.183127 -6.202221 -0.009267 1.407618 3.004622 6.608324 -3.143808 17.849449 -8.720192 0.019876 -0.259566 -1.219361 -2.808511 -4.603251 6.072543 4.030966 -15.273421 -6.194955 -0.090466 1.282228 
-1.180090 49.944260 0.015084 1.526619 -0.956358 2.148627 0.000000 0.000000 0.000000 -7.153718 -2.264998 -1.348919 -0.735477 -0.312428 -1.230504 15.561044 1.093658 0.742425 -15.944204 -14.745820 -8.021805 -59.758739 21.153641 13.717970 -46.381416 -10.101877 -8.088840 -5.449857 14.724422 -4.211420 7.978260 3.763483 -6.151151 40.090626 25.407003 11.413926 60.195187 5.575084 -6.432512 -17.112633 2.469838 -4.278071 -0.019601 1.540869 3.052816 7.073302 -3.081523 17.752573 -8.934152 0.051168 -0.460243 -1.112110 -2.642370 -4.500844 6.266297 3.962758 -15.466500 -6.350569 -0.090795 1.314631 
-1.215957 49.944061 0.088266 1.179588 -0.888119 2.021695 0.000000 0.000000 0.000000 -7.141780 -2.509508 -0.821236 -0.905347 -0.253890 -0.644568 16.019001 1.562332 0.840330 -14.843970 -14.571456 -7.913600 -60.404793 20.469341 13.449802 -46.725334 -9.905755 -6.548449 -5.853438 14.944919 -4.268239 11.288365 5.160214 -6.301875 41.486149 18.006523 20.626991 44.977901 12.046140 4.118186 -6.341170 -2.680811 -3.649217 0.457693 1.550127 3.183535 6.969569 -3.135541 17.815735 -8.962775 0.026809 -0.504053 -0.702117 -2.630795 -4.510649 6.306406 3.885993 -15.369304 -6.456823 -0.089309 1.358377 
